<svg width="166" height="166" viewBox="0 0 166 166" fill="none" xmlns="http://www.w3.org/2000/svg">
<rect x="4" y="4" width="158" height="158" rx="24" fill="#1E1E1E"/>
<rect x="4" y="4" width="158" height="158" rx="24" stroke="white" stroke-width="8"/>
<path d="M104.046 55.0134C103.651 51.0339 103.729 47.355 104.673 43.8776C105.148 42.1371 105.841 40.4411 106.82 38.7649C107.802 37.0847 109.074 35.4241 110.723 33.7753L113.431 31.0674L109.133 26.7676L106.423 29.4735C103.885 32.0113 102.018 34.6838 100.716 37.4559C98.7552 41.6211 98.083 45.9991 98.1318 50.3811C98.1728 54.767 98.9015 59.1764 99.7399 63.6054C100.287 66.4908 100.76 69.267 101.023 71.9181C101.42 75.8977 101.34 79.5785 100.394 83.0539C99.9215 84.7927 99.2279 86.4902 98.2473 88.1684C97.2646 89.8466 95.9927 91.5052 94.344 93.1542V93.1562H94.346L93.1561 94.3459C92.8378 94.6624 92.523 94.9653 92.2008 95.2563L72.7309 75.7865C71.7697 76.8453 70.9587 77.9277 70.2672 79.0627L88.9676 97.7609C88.1413 98.2885 87.3127 98.7454 86.4787 99.1362C85.5546 99.572 84.6228 99.9294 83.6732 100.215L67.9973 84.5388C67.6221 86.1115 67.4209 87.7974 67.3838 89.6689L78.8515 101.135C77.8553 101.223 76.8394 101.254 75.802 101.248C73.4791 101.225 71.0567 100.978 68.5286 100.594C68.6341 101.172 68.7358 101.727 68.8392 102.268C69.0912 103.579 69.3412 104.956 69.5718 106.381C70.4373 106.502 71.2988 106.603 72.1603 106.689C76.5541 107.125 80.9556 107.072 85.2457 105.908C87.3909 105.327 89.495 104.466 91.5365 103.27C93.5761 102.077 95.5569 100.547 97.4561 98.6479L98.6438 97.4562C101.182 94.9223 103.047 92.2479 104.354 89.4738C106.314 85.3085 106.984 80.9344 106.939 76.5505C106.894 72.1646 106.167 67.7532 105.331 63.3262C104.78 60.4385 104.309 57.6645 104.046 55.0134Z" fill="white"/>
<path d="M134.93 52.5685L132.224 55.2742C131.904 55.5927 131.59 55.8956 131.269 56.1847L111.797 36.7129C110.838 37.7738 110.027 38.8581 109.336 39.9891L128.034 58.6895C127.207 59.2189 126.383 59.674 125.547 60.0648C124.623 60.5003 123.689 60.8577 122.742 61.1431L107.066 45.4691C106.69 47.0397 106.489 48.7258 106.454 50.5973L117.92 62.0632C116.923 62.153 115.908 62.1825 114.87 62.1765C112.547 62.155 110.125 61.907 107.597 61.5202C107.702 62.0986 107.802 62.6574 107.909 63.1984C108.157 64.5091 108.408 65.8844 108.64 67.3089C109.505 67.4299 110.365 67.5316 111.226 67.6177C115.622 68.0531 120.026 68.0023 124.312 66.8362C126.457 66.256 128.563 65.3963 130.605 64.1989C132.642 63.0073 134.623 61.4754 136.526 59.5745L139.23 56.8668L134.93 52.5685Z" fill="white"/>
<path d="M56.662 126.01L37.9655 107.314C38.7882 106.78 39.6165 106.323 40.4505 105.934C41.3766 105.499 42.3084 105.139 43.256 104.856L58.9319 120.532C59.3071 118.961 59.5083 117.273 59.5434 115.402L48.0817 103.94C49.078 103.852 50.092 103.815 51.1292 103.822C53.4501 103.844 55.8747 104.096 58.3968 104.481C58.2953 103.901 58.1939 103.34 58.0902 102.801C57.8402 101.492 57.592 100.112 57.3596 98.6882C56.4959 98.5749 55.6366 98.4714 54.7749 98.3853C50.3771 97.9438 45.9719 97.9945 41.6835 99.1609C39.5464 99.7472 37.4344 100.607 35.3929 101.8C33.3553 102.992 31.3743 104.522 29.4733 106.425L26.7676 109.13L31.0676 113.432L33.7734 110.725C34.0919 110.406 34.4104 110.103 34.7308 109.814L54.2027 129.284C55.1597 128.225 55.9742 127.141 56.662 126.01Z" fill="white"/>
<path d="M64.9767 94.0845C64.5839 90.1051 64.6602 86.4243 65.6038 82.9509C66.0785 81.2064 66.7702 79.5126 67.7527 77.8344C68.7333 76.1562 70.0071 74.4938 71.656 72.8448L72.8457 71.6569L72.8437 71.6532C73.1603 71.3347 73.4788 71.0338 73.801 70.7464L93.2691 90.2145C94.2283 89.1556 95.0431 88.0694 95.7288 86.9403L77.0324 68.2441C77.8568 67.7108 78.6871 67.2534 79.5194 66.8647C80.4454 66.431 81.3772 66.0695 82.3248 65.7861L98.0007 81.4603C98.3779 79.8895 98.5771 78.2054 98.6123 76.3339L87.1503 64.8699C88.1447 64.7821 89.1606 64.7449 90.1978 64.7548C92.517 64.7764 94.9433 65.0283 97.4654 65.4094C97.364 64.8311 97.2625 64.2722 97.1588 63.7312C96.9088 62.4203 96.6586 61.0448 96.4282 59.6208C95.5665 59.5035 94.7052 59.4002 93.8435 59.3141C89.444 58.8763 85.0405 58.9273 80.7521 60.0935C78.6148 60.6775 76.503 61.5373 74.4615 62.7309C72.424 63.9245 70.4429 65.4522 68.542 67.3551L68.5439 67.3571L67.3543 68.5468C64.8185 71.0825 62.9508 73.7551 61.6475 76.5294C59.6862 80.6945 59.0141 85.0706 59.0628 89.4506C59.1041 93.8385 59.8325 98.2498 60.6687 102.677C61.2177 105.562 61.6904 108.338 61.9542 110.988C62.3487 114.971 62.2707 118.648 61.3251 122.125C60.8524 123.864 60.1587 125.561 59.1799 127.24C58.1971 128.918 56.9214 130.575 55.2746 132.226L52.5688 134.933L56.8671 139.233L59.5768 136.527C62.1126 133.992 63.9803 131.317 65.2853 128.545C67.2449 124.38 67.9168 120.005 67.87 115.622C67.825 111.234 67.0964 106.826 66.2601 102.399C65.7112 99.5116 65.2403 96.7375 64.9767 94.0845Z" fill="white"/>
</svg>
